# xmcd CD database file
#
# Track frame offsets:
#	150
#	16193
#	31996
#	44839
#	66204
#	79555
#	96772
#	113864
#	125954
#	136003
#
# Disc length: 2007 seconds
#
# Revision: 0
# Processed by: cddbd v1.5.2PL0 Copyright (c) Steve Scherf et al.
# Submitted via: CDex 1.70beta3
#
DISCID=8307d50a
DTITLE=太田昌宏 - Jazz Arrange Music World Vol.14 文部省唱歌編3
DYEAR=1900
DGENRE=Jazz
TTITLE0=村の鍛冶屋
TTITLE1=つき
TTITLE2=四季の雨
TTITLE3=赤とんぼ
TTITLE4=池の鯉
TTITLE5=かたつむり
TTITLE6=朧月夜
TTITLE7=雪
TTITLE8=こうま
TTITLE9=虫の声
EXTD=
EXTT0=
EXTT1=
EXTT2=
EXTT3=
EXTT4=
EXTT5=
EXTT6=
EXTT7=
EXTT8=
EXTT9=
PLAYORDER=
